<mxfile host="app.diagrams.net" modified="2023-06-09T13:47:43.088Z" agent="Mozilla/5.0 (Windows NT 10.0; Win64; x64) AppleWebKit/537.36 (KHTML, like Gecko) Chrome/114.0.0.0 Safari/537.36" version="21.3.8" etag="44tD8kIWKGMlpztFVCch" type="github">
  <diagram name="Page-1" id="vktZMe8x5p6Vtm1BOrrI">
    <mxGraphModel>
      <root>
        <mxCell id="0" />
        <mxCell id="1" parent="0" />
      </root>
    </mxGraphModel>
  </diagram>
</mxfile>
